<?xml version="1.0" encoding="UTF-8" standalone="no"?>
<!-- Created with Inkscape (http://www.inkscape.org/) -->

<svg
   width="134.63559mm"
   height="123.98144mm"
   viewBox="0 0 134.63559 123.98144"
   version="1.1"
   id="svg31541"
   inkscape:version="1.1.2 (0a00cf5339, 2022-02-04)"
   sodipodi:docname="playground.svg"
   xmlns:inkscape="http://www.inkscape.org/namespaces/inkscape"
   xmlns:sodipodi="http://sodipodi.sourceforge.net/DTD/sodipodi-0.dtd"
   xmlns="http://www.w3.org/2000/svg"
   xmlns:svg="http://www.w3.org/2000/svg">
  <sodipodi:namedview
     id="namedview31543"
     pagecolor="#ffffff"
     bordercolor="#666666"
     borderopacity="1.0"
     inkscape:pageshadow="2"
     inkscape:pageopacity="0.0"
     inkscape:pagecheckerboard="0"
     inkscape:document-units="mm"
     showgrid="false"
     inkscape:zoom="0.74331524"
     inkscape:cx="291.26269"
     inkscape:cy="207.17993"
     inkscape:window-width="1366"
     inkscape:window-height="709"
     inkscape:window-x="0"
     inkscape:window-y="0"
     inkscape:window-maximized="1"
     inkscape:current-layer="layer1"
     inkscape:snap-bbox="true"
     inkscape:snap-bbox-edge-midpoints="true"
     inkscape:snap-bbox-midpoints="true"
     inkscape:bbox-nodes="true"
     showborder="false" />
  <defs
     id="defs31538" />
  <g
     inkscape:label="Layer 1"
     inkscape:groupmode="layer"
     id="layer1"
     transform="translate(-166.30877,47.008516)">
    <g
       id="g124"
       transform="matrix(0.44292785,0,0,0.44292785,179.01748,-21.609886)"
       inkscape:export-filename="/home/louis/Documents/designs/logo/weavv/g124.png"
       inkscape:export-xdpi="57.75"
       inkscape:export-ydpi="57.75">
      <g
         id="g31510"
         transform="matrix(0.33737648,0,0,0.33737648,-51.9507,-577.12983)"
         style="display:inline">
        <path
           id="rect31498"
           style="display:inline;fill:#00ccff;stroke-width:1.33528"
           transform="matrix(0.69745597,-0.71662764,0.69745597,0.71662764,0,0)"
           d="m -1078.6928,1344.6932 h 185.3622 c 48.91252,0 88.28974,39.3773 88.28974,88.2898 v 195.8025 c 0,48.9125 -39.37722,88.2898 -88.28974,88.2898 h -185.3622 c -48.9125,0 -88.2897,-39.3773 -88.2897,-88.2898 V 1432.983 c 0,-48.9125 39.3772,-88.2898 88.2897,-88.2898 z" />
        <path
           id="rect31500"
           style="font-variation-settings:'wght' 300;display:inline;fill:#ffffff;stroke-width:2.22697"
           d="m 232.81965,1776.3662 h 119.90204 c 15.1288,0 27.30831,12.1795 27.30831,27.3083 0,15.1288 -12.17951,27.3083 -27.30831,27.3083 H 232.81965 c -15.12881,0 -27.30831,-12.1795 -27.30831,-27.3083 0,-15.1288 12.1795,-27.3083 27.30831,-27.3083 z" />
        <path
           id="path31502"
           style="display:inline;fill:none;fill-opacity:1;stroke:#4d4d4d;stroke-width:20.9422;stroke-miterlimit:4;stroke-dasharray:none;stroke-opacity:1"
           d="m 295.82661,1551.1453 c -22.26047,0 -44.52122,8.7634 -61.57845,26.2895 l -129.28154,132.8347 c -34.114202,35.0519 -34.114202,91.4905 0,126.5426 l 136.56335,140.3167 c 34.11436,35.0521 89.04244,35.0521 123.15683,0 l 54.2815,-55.7732 c -0.003,-8.1991 -0.0106,-14.9842 -0.0106,-26.6979 0,-57.9552 0.0868,-68.9543 0.55518,-70.93 2.88758,-12.1788 15.37207,-19.3652 26.80489,-15.4299 1.16461,0.4008 24.64391,13.7457 52.91901,30.0552 28.7261,-35.2256 26.98228,-87.4634 -5.26809,-120.6002 l -136.5633,-140.318 c -17.05718,-17.5261 -39.31793,-26.2895 -61.5784,-26.2895 z" />
        <path
           id="rect31504"
           style="font-variation-settings:'wght' 300;display:inline;fill:none;stroke:#4d4d4d;stroke-width:20.9422"
           d="m 146.60304,1754.6285 h 129.21367 c 12.54948,0 22.6525,10.1031 22.6525,22.6525 0,12.5495 -10.10302,22.6525 -22.6525,22.6525 H 146.60304 c -12.54948,0 -22.65249,-10.103 -22.65249,-22.6525 0,-12.5494 10.10301,-22.6525 22.65249,-22.6525 z" />
        <g
           id="g31508"
           transform="matrix(2.6526894,0,0,2.6526894,681.494,1371.0537)"
           style="display:inline;fill:#4d4d4d;fill-opacity:1">
          <path
             style="fill:#4d4d4d;fill-opacity:1;stroke-width:0.116799"
             d="m -84.359194,232.8116 c -1.596986,-0.36409 -3.316068,-1.69686 -4.089655,-3.17062 -0.769481,-1.46594 -0.726348,-0.11392 -0.726348,-22.76502 0,-17.36918 0.02578,-20.66537 0.166161,-21.2575 0.865399,-3.64997 4.607079,-5.80384 8.033505,-4.62443 0.368251,0.12675 8.11376,4.53037 17.212238,9.78581 17.728664,10.24039 17.51664,10.10733 18.370092,11.52848 0.764112,1.27238 0.98886,2.07704 0.998478,3.57484 0.0071,1.11185 -0.03744,1.47648 -0.258831,2.11703 -0.523803,1.51552 -1.439686,2.73173 -2.710893,3.59981 -0.353318,0.24128 -7.869362,5.0041 -16.702319,10.58404 -10.978833,6.93554 -16.30012,10.23278 -16.81912,10.42167 -0.96095,0.34975 -2.454122,0.43826 -3.473308,0.20589 z"
             id="path31506" />
        </g>
      </g>
    </g>
  </g>
</svg>
